<!-- Generated by IcoMoon.io -->
<svg version="1.1" xmlns="http://www.w3.org/2000/svg" width="32" height="32" viewBox="0 0 32 32">
<title>books</title>
<path d="M7.368 5.823h-5.088c-0.466 0-0.848 0.382-0.848 0.848v18.657c0 0.466 0.382 0.848 0.848 0.848h5.088c0.466 0 0.848-0.382 0.848-0.848v-18.657c0-0.466-0.382-0.848-0.848-0.848zM6.52 10.912h-3.392v-1.696h3.392v1.696z"></path>
<path d="M15.848 5.823h-5.088c-0.466 0-0.848 0.382-0.848 0.848v18.657c0 0.466 0.382 0.848 0.848 0.848h5.088c0.466 0 0.848-0.382 0.848-0.848v-18.657c0-0.466-0.382-0.848-0.848-0.848zM15 10.912h-3.392v-1.696h3.392v1.696z"></path>
<path d="M21.707 7.135l-4.544 2.29c-0.416 0.21-0.586 0.722-0.376 1.139l7.632 15.147c0.21 0.417 0.722 0.586 1.139 0.376l4.544-2.29c0.416-0.21 0.586-0.722 0.376-1.139l-7.632-15.147c-0.21-0.417-0.722-0.586-1.139-0.376z"></path>
</svg>
