<svg version="1.1" xmlns="http://www.w3.org/2000/svg" width="512" height="512" viewBox="0 0 512 512">
<path d="M158.587 416.032l83.496-41.748v-68.275l-83.496 35.659v74.364zM144.672 317.317l87.844-37.616-87.844-37.616-87.844 37.616zM381.243 416.032l83.497-41.748v-68.275l-83.496 35.659v74.364zM367.326 317.317l87.844-37.616-87.844-37.616-87.844 37.616zM269.916 253.607l83.497-35.877v-57.839l-83.496 35.659v58.055zM255.999 171.2l95.89-41.096-95.89-41.096-95.89 41.096zM492.571 283.832v90.454c0 10.438-5.871 20.223-15.438 24.788l-97.412 48.706c-3.914 2.174-8.046 3.044-12.394 3.044s-8.481-0.87-12.394-3.044l-97.412-48.706c-0.652-0.217-1.087-0.435-1.522-0.87-0.435 0.435-0.87 0.652-1.522 0.87l-97.412 48.706c-3.915 2.174-8.046 3.044-12.393 3.044s-8.481-0.87-12.393-3.044l-97.412-48.706c-9.568-4.566-15.438-14.351-15.438-24.788v-90.454c0-11.089 6.74-21.092 16.96-25.658l94.368-40.444v-86.975c0-11.089 6.74-21.092 16.96-25.658l97.412-41.748c3.478-1.522 7.176-2.174 10.871-2.174s7.393 0.652 10.872 2.174l97.412 41.748c10.22 4.566 16.96 14.569 16.96 25.658v86.975l94.368 40.444c10.438 4.566 16.96 14.569 16.96 25.658z"></path>
</svg>
