<!-- Generated by IcoMoon.io -->
<svg version="1.1" xmlns="http://www.w3.org/2000/svg" width="32" height="32" viewBox="0 0 32 32">
<title>github-alt</title>
<path d="M12.58 20.559c0 1.3-0.677 3.42-2.28 3.42s-2.28-2.119-2.28-3.42 0.677-3.42 2.28-3.42 2.28 2.119 2.28 3.42zM23.979 20.559c0 1.3-0.677 3.42-2.28 3.42s-2.28-2.119-2.28-3.42 0.677-3.42 2.28-3.42 2.28 2.119 2.28 3.42zM26.829 20.559c0-2.725-1.656-5.129-4.559-5.129-1.175 0-2.297 0.214-3.473 0.374-0.926 0.142-1.852 0.196-2.796 0.196s-1.87-0.053-2.796-0.196c-1.158-0.16-2.297-0.374-3.473-0.374-2.903 0-4.559 2.404-4.559 5.129 0 5.45 4.987 6.287 9.333 6.287h2.992c4.346 0 9.333-0.837 9.333-6.287zM30.818 17.425c0 1.977-0.196 4.079-1.086 5.895-2.351 4.755-8.816 5.218-13.447 5.218-4.702 0-11.559-0.41-13.999-5.218-0.908-1.799-1.104-3.918-1.104-5.895 0-2.6 0.712-5.058 2.422-7.053-0.321-0.98-0.481-2.013-0.481-3.028 0-1.336 0.303-2.672 0.908-3.883 2.814 0 4.613 1.229 6.75 2.903 1.799-0.427 3.651-0.623 5.503-0.623 1.674 0 3.366 0.178 4.987 0.57 2.119-1.656 3.918-2.85 6.697-2.85 0.606 1.211 0.908 2.547 0.908 3.883 0 1.015-0.16 2.030-0.481 2.992 1.71 2.013 2.422 4.488 2.422 7.089z"></path>
</svg>
