<svg version="1.1" xmlns="http://www.w3.org/2000/svg" width="512" height="512" viewBox="0 0 512 512">
<path d="M168.726 234.183h174.546v-65.454c0-48.067-39.204-87.273-87.273-87.273s-87.273 39.204-87.273 87.273v65.454zM452.363 266.909v196.363c0 18.068-14.659 32.727-32.727 32.727h-327.273c-18.068 0-32.727-14.659-32.727-32.727v-196.363c0-18.068 14.659-32.727 32.727-32.727h10.909v-65.454c0-83.864 68.864-152.727 152.727-152.727s152.727 68.864 152.727 152.727v65.454h10.909c18.068 0 32.727 14.659 32.727 32.727z"></path>
</svg>
