<svg version="1.1" xmlns="http://www.w3.org/2000/svg" width="512" height="512" viewBox="0 0 512 512">
<path fill="#000" d="M183.834 61.054c-30.906 31.839-59.065 60.84-62.573 64.446l-6.379 6.555-15.604 110.169c-8.582 60.593-15.604 110.472-15.604 110.842 0 0.663 155.76 155.573 156.639 155.786 0.282 0.068 187.034-125.253 187.939-126.117 0.394-0.376-0.538-1.405-10.007-11.044-5.841-5.947-8.817-8.788-8.906-8.505-0.074 0.235-0.608 1.957-1.186 3.827-9.974 32.256-44.327 29.426-85.701-7.062l-3.763-3.318-1.231 1.079c-13.649 11.964-21.733 17.872-31.93 23.33-38.48 20.599-61.531 3.661-59.501-43.724 0.395-9.243 2.956-27.489 4.377-31.192 0.113-0.295-0.531-0.601-2.482-1.183-16.253-4.847-33.766-13.515-44.481-22.018-32.911-26.115-16.117-57.474 41.215-76.957 4.55-1.546 5.581-1.992 5.468-2.364-4.498-14.857-5.776-41.504-2.677-55.834 8.047-37.211 43.981-36.298 87.278 2.216 1.49 1.326 2.919 2.576 3.175 2.777 0.404 0.318 0.887-0.013 3.683-2.524 12.44-11.179 25.851-20.228 37.166-25.074 1.053-0.451 1.914-0.918 1.914-1.037 0-0.355-119.993-120.999-120.327-120.981-0.169 0.010-25.594 26.067-56.501 57.907zM253.354 134.124c-11.851 1.852-16.92 22.315-12.75 51.467 0.632 4.418 2.531 14.519 2.775 14.763 0.057 0.056 2.323-0.404 5.038-1.022 9.075-2.065 19.523-3.87 28.751-4.967 2.027-0.242 4.155-0.511 4.73-0.6 0.953-0.148 1.3-0.501 3.945-4.038 6.026-8.053 12.067-15.349 18.913-22.84l3.858-4.222-0.868-0.739c-0.478-0.407-2.195-1.897-3.817-3.311-19.396-16.921-38.821-26.328-50.577-24.491zM368.459 135.849c-11.32 3.895-24.814 12.704-38.974 25.437l-1.551 1.395 2.402 2.525c6.269 6.591 14.469 16.397 21.344 25.523 1.829 2.427 2.329 2.917 3.101 3.039 0.506 0.080 2.897 0.391 5.315 0.69l4.394 0.544 1.164-1.173c0.64-0.644 7.392-7.679 15.002-15.631s14.485-15.131 15.274-15.952l1.437-1.493-12.894-12.895c-7.091-7.093-13.021-12.893-13.178-12.891-0.156 0.001-1.433 0.399-2.836 0.882zM316.113 174.588c-3.618 3.706-12.599 14.187-14.577 17.011-0.324 0.464 0.604 0.49 16.748 0.49 11.315 0 17.035-0.095 16.925-0.284-1.009-1.724-13.777-16.454-16.276-18.776l-0.681-0.631-2.139 2.191zM306.228 205.726c-6.403 0.351-12.32 0.721-14.002 0.874l-1.954 0.178-4.036 6.122c-7.647 11.6-14.407 23.363-20.543 35.749l-3.161 6.38 1.618 3.402c5.704 11.993 13.625 25.796 22.3 38.868l3.97 5.981 4.572 0.329c17.978 1.296 50.877 0.777 51.777-0.815 0.13-0.23 0.61-0.928 1.067-1.552l0.832-1.134-5.982-6.175c-3.289-3.396-7.581-7.849-9.536-9.896l-3.553-3.721-1.882 0.752c-23.266 9.308-46.25-14.526-36.221-37.559 6.214-14.271 23.789-20.897 37.637-14.189l1.676 0.812 18.433-19.246-2.834-4.154-2.016-0.176c-6.652-0.578-11.339-0.747-23.137-0.833-7.251-0.054-14.012-0.051-15.026 0.005zM269.514 209.129c-9.248 1.605-22.455 4.219-22.769 4.506-0.345 0.318 8.233 24.523 8.692 24.523 0.107 0 1.19-1.898 2.406-4.218 3.156-6.014 7.98-14.405 11.563-20.113 1.696-2.7 3.084-4.965 3.084-5.032 0-0.163-0.322-0.126-2.977 0.333zM227.555 219.273c-30.737 10.721-49.716 25.988-47.167 37.939 2.121 9.943 17.349 21.697 39.552 30.526 4.392 1.746 13.695 4.987 13.817 4.813 0.039-0.055 0.623-1.95 1.299-4.211 2.46-8.238 6.042-18.060 10.078-27.639l2.396-5.684-2.405-5.603c-3.781-8.81-8.016-20.412-10.758-29.47-0.906-2.994-0.321-2.936-6.812-0.672zM254.336 274.236c-2.397 6.209-7.361 20.93-7.361 21.827 0 0.512 24.993 5.368 25.421 4.94 0.067-0.067-0.8-1.571-1.927-3.344-3.744-5.891-9.142-15.082-12.012-20.452-1.559-2.916-2.922-5.305-3.027-5.307s-0.598 1.049-1.095 2.336zM243.421 309.708c-0.238 0.704-1.84 9.329-2.376 12.795-3.643 23.573-1.114 43.317 6.454 50.397 9.588 8.967 33.869-0.889 59.682-24.229l1.661-1.502-3.574-3.861c-6.348-6.857-13.303-15.205-19.284-23.144-1.673-2.222-3.159-4.039-3.3-4.039-0.666 0-11.99-1.505-16.149-2.146-4.747-0.733-16.738-3.069-20.789-4.053-1.572-0.381-2.25-0.445-2.327-0.217zM359.245 315.437c-5.922 0.745-4.959 0.209-8.245 4.599-6.031 8.061-12.070 15.355-18.919 22.849l-3.858 4.223 0.868 0.74c0.478 0.406 2.195 1.896 3.817 3.312 21.763 18.986 43.389 28.366 53.978 23.411 5.452-2.551 9.521-11.619 10.402-23.179l0.089-1.165-17.106-17.618c-10.057-10.357-17.301-17.603-17.577-17.581-0.259 0.020-1.81 0.205-3.447 0.411zM301.409 317.793c0 0.55 10.123 12.356 14.82 17.282l2.257 2.366 1.414-1.374c3.082-2.995 15.53-17.599 15.53-18.221 0-0.091-7.654-0.164-17.010-0.164s-17.010 0.050-17.010 0.111z"></path>
</svg>
