<!-- Generated by IcoMoon.io -->
<svg version="1.1" xmlns="http://www.w3.org/2000/svg" width="32" height="32" viewBox="0 0 32 32">
<title>logo</title>
<path d="M11.775 4.587c-1.809 1.864-3.458 3.562-3.663 3.773l-0.373 0.384-0.914 6.45c-0.502 3.547-0.914 6.468-0.914 6.489 0 0.039 9.119 9.108 9.17 9.12 0.017 0.004 10.95-7.333 11.003-7.384 0.023-0.022-0.032-0.082-0.586-0.647-0.342-0.348-0.516-0.515-0.521-0.498-0.004 0.014-0.036 0.115-0.069 0.224-0.584 1.888-2.595 1.723-5.017-0.413l-0.22-0.194-0.072 0.063c-0.799 0.7-1.272 1.046-1.869 1.366-2.253 1.206-3.602 0.214-3.484-2.56 0.023-0.541 0.173-1.609 0.256-1.826 0.007-0.017-0.031-0.035-0.145-0.069-0.952-0.284-1.977-0.791-2.604-1.289-1.927-1.529-0.944-3.365 2.413-4.505 0.266-0.091 0.327-0.117 0.32-0.138-0.263-0.87-0.338-2.43-0.157-3.269 0.471-2.178 2.575-2.125 5.11 0.13 0.087 0.078 0.171 0.151 0.186 0.163 0.024 0.019 0.052-0.001 0.216-0.148 0.728-0.655 1.513-1.184 2.176-1.468 0.062-0.026 0.112-0.054 0.112-0.061 0-0.021-7.025-7.084-7.045-7.083-0.010 0.001-1.498 1.526-3.308 3.39zM15.845 8.865c-0.694 0.108-0.991 1.306-0.746 3.013 0.037 0.259 0.148 0.85 0.162 0.864 0.003 0.003 0.136-0.024 0.295-0.060 0.531-0.121 1.143-0.227 1.683-0.291 0.119-0.014 0.243-0.030 0.277-0.035 0.056-0.009 0.076-0.029 0.231-0.236 0.353-0.471 0.706-0.899 1.107-1.337l0.226-0.247-0.051-0.043c-0.028-0.024-0.128-0.111-0.223-0.194-1.136-0.991-2.273-1.541-2.961-1.434zM22.584 8.966c-0.663 0.228-1.453 0.744-2.282 1.489l-0.091 0.082 0.141 0.148c0.367 0.386 0.847 0.96 1.25 1.494 0.107 0.142 0.136 0.171 0.182 0.178 0.030 0.005 0.17 0.023 0.311 0.040l0.257 0.032 0.068-0.069c0.037-0.038 0.433-0.45 0.878-0.915s0.848-0.886 0.894-0.934l0.084-0.087-0.755-0.755c-0.415-0.415-0.762-0.755-0.771-0.755s-0.084 0.023-0.166 0.052zM19.519 11.234c-0.212 0.217-0.738 0.831-0.853 0.996-0.019 0.027 0.035 0.029 0.981 0.029 0.662 0 0.997-0.006 0.991-0.017-0.059-0.101-0.807-0.963-0.953-1.099l-0.040-0.037-0.125 0.128zM18.941 13.057c-0.375 0.021-0.721 0.042-0.82 0.051l-0.114 0.010-0.236 0.358c-0.448 0.679-0.843 1.368-1.203 2.093l-0.185 0.373 0.095 0.199c0.334 0.702 0.798 1.51 1.306 2.276l0.232 0.35 0.268 0.019c1.053 0.076 2.979 0.046 3.031-0.048 0.008-0.013 0.036-0.054 0.062-0.091l0.049-0.066-0.35-0.361c-0.193-0.199-0.444-0.459-0.558-0.579l-0.208-0.218-0.11 0.044c-1.362 0.545-2.708-0.85-2.121-2.199 0.364-0.835 1.393-1.223 2.203-0.831l0.098 0.048 1.079-1.127-0.166-0.243-0.118-0.010c-0.389-0.034-0.664-0.044-1.355-0.049-0.424-0.003-0.82-0.003-0.88 0zM16.791 13.256c-0.541 0.094-1.315 0.247-1.333 0.264-0.020 0.019 0.482 1.436 0.509 1.436 0.006 0 0.070-0.111 0.141-0.247 0.185-0.352 0.467-0.843 0.677-1.177 0.099-0.158 0.181-0.291 0.181-0.295 0-0.010-0.019-0.007-0.174 0.020zM14.335 13.85c-1.799 0.628-2.911 1.521-2.761 2.221 0.124 0.582 1.016 1.27 2.316 1.787 0.257 0.102 0.802 0.292 0.809 0.282 0.002-0.003 0.037-0.114 0.076-0.247 0.144-0.482 0.354-1.057 0.59-1.618l0.14-0.333-0.141-0.328c-0.221-0.516-0.469-1.195-0.63-1.725-0.053-0.175-0.019-0.172-0.399-0.039zM15.903 17.068c-0.14 0.364-0.431 1.225-0.431 1.278 0 0.030 1.463 0.314 1.488 0.289 0.004-0.004-0.047-0.092-0.113-0.196-0.219-0.345-0.535-0.883-0.703-1.197-0.091-0.171-0.171-0.311-0.177-0.311s-0.035 0.061-0.064 0.137zM15.264 19.144c-0.014 0.041-0.108 0.546-0.139 0.749-0.213 1.38-0.065 2.536 0.378 2.951 0.561 0.525 1.983-0.052 3.494-1.419l0.097-0.088-0.209-0.226c-0.372-0.401-0.779-0.89-1.129-1.355-0.098-0.13-0.185-0.236-0.193-0.236-0.039 0-0.702-0.088-0.945-0.126-0.278-0.043-0.98-0.18-1.217-0.237-0.092-0.022-0.132-0.026-0.136-0.013zM22.044 19.48c-0.347 0.044-0.29 0.012-0.483 0.269-0.353 0.472-0.707 0.899-1.108 1.338l-0.226 0.247 0.051 0.043c0.028 0.024 0.128 0.111 0.223 0.194 1.274 1.112 2.54 1.661 3.16 1.371 0.319-0.149 0.557-0.68 0.609-1.357l0.005-0.068-1.002-1.031c-0.589-0.606-1.013-1.031-1.029-1.029-0.015 0.001-0.106 0.012-0.202 0.024zM18.659 19.618c0 0.032 0.593 0.723 0.868 1.012l0.132 0.139 0.083-0.080c0.18-0.175 0.909-1.030 0.909-1.067 0-0.005-0.448-0.010-0.996-0.010s-0.996 0.003-0.996 0.006z"></path>
</svg>
