<?xml version="1.0" encoding="UTF-8"?>
<svg width="64px" height="64px" viewBox="0 0 64 64" version="1.1" xmlns="http://www.w3.org/2000/svg" xmlns:xlink="http://www.w3.org/1999/xlink">
    <title>icon-modules</title>
    <g id="Page-1" stroke="none" stroke-width="1" fill="none" fill-rule="evenodd">
        <g id="Artboard" transform="translate(-301.000000, -716.000000)" fill="#000000" fill-rule="nonzero">
            <g id="Group-5" transform="translate(298.000000, 701.000000)">
                <g id="Group-2-Copy" transform="translate(0.000000, 15.000000)">
                    <g id="icon-modules" transform="translate(3.000000, 0.000000)">
                        <path d="M5.33333333,37.3333333 C2.39253333,37.3333333 -8.8817842e-16,34.9408 -8.8817842e-16,32 C-8.8817842e-16,29.0592 2.39253333,26.6666667 5.33333333,26.6666667 C8.27413333,26.6666667 10.6666667,29.0592 10.6666667,32 C10.6666667,34.9408 8.27413333,37.3333333 5.33333333,37.3333333 Z M5.33333333,28.8 C3.56906667,28.8 2.13333333,30.2357333 2.13333333,32 C2.13333333,33.7642667 3.56906667,35.2 5.33333333,35.2 C7.0976,35.2 8.53333333,33.7642667 8.53333333,32 C8.53333333,30.2357333 7.0976,28.8 5.33333333,28.8 Z" id="Shape"></path>
                        <path d="M58.6666667,37.3333333 C55.7258667,37.3333333 53.3333333,34.9408 53.3333333,32 C53.3333333,29.0592 55.7258667,26.6666667 58.6666667,26.6666667 C61.6074667,26.6666667 64,29.0592 64,32 C64,34.9408 61.6074667,37.3333333 58.6666667,37.3333333 Z M58.6666667,28.8 C56.9024,28.8 55.4666667,30.2357333 55.4666667,32 C55.4666667,33.7642667 56.9024,35.2 58.6666667,35.2 C60.4309333,35.2 61.8666667,33.7642667 61.8666667,32 C61.8666667,30.2357333 60.4309333,28.8 58.6666667,28.8 Z" id="Shape"></path>
                        <path d="M32,64 C29.0592,64 26.6666667,61.6074667 26.6666667,58.6666667 C26.6666667,55.7258667 29.0592,53.3333333 32,53.3333333 C34.9408,53.3333333 37.3333333,55.7258667 37.3333333,58.6666667 C37.3333333,61.6074667 34.9408,64 32,64 Z M32,55.4666667 C30.2357333,55.4666667 28.8,56.9024 28.8,58.6666667 C28.8,60.4309333 30.2357333,61.8666667 32,61.8666667 C33.7642667,61.8666667 35.2,60.4309333 35.2,58.6666667 C35.2,56.9024 33.7642667,55.4666667 32,55.4666667 Z" id="Shape"></path>
                        <path d="M32,10.6666667 C29.0592,10.6666667 26.6666667,8.27413333 26.6666667,5.33333333 C26.6666667,2.39253333 29.0592,0 32,0 C34.9408,0 37.3333333,2.39253333 37.3333333,5.33333333 C37.3333333,8.27413333 34.9408,10.6666667 32,10.6666667 Z M32,2.13333333 C30.2357333,2.13333333 28.8,3.56906667 28.8,5.33333333 C28.8,7.0976 30.2357333,8.53333333 32,8.53333333 C33.7642667,8.53333333 35.2,7.0976 35.2,5.33333333 C35.2,3.56906667 33.7642667,2.13333333 32,2.13333333 Z" id="Shape"></path>
                        <path d="M58.3264,28.8341333 C57.8122667,28.8341333 57.3578667,28.4597333 57.2746667,27.9349333 C56.9504,25.9082667 56.3829333,23.9242667 55.5861333,22.0405333 C55.3568,21.4976 55.6096,20.8714667 56.1525333,20.6421333 C56.6965333,20.4117333 57.3216,20.6656 57.5509333,21.2085333 C58.4149333,23.2512 59.0314667,25.4016 59.3813333,27.5989333 C59.4741333,28.1802667 59.0784,28.7274667 58.496,28.8202667 C58.4394667,28.8298667 58.3829333,28.8341333 58.3264,28.8341333 L58.3264,28.8341333 Z" id="Path"></path>
                        <path d="M53.1146667,16.7818667 C52.7957333,16.7818667 52.48,16.6389333 52.2698667,16.3669333 C50.928,14.6293333 49.3653333,13.0666667 47.6245333,11.7226667 C47.1584,11.3632 47.072,10.6933333 47.4325333,10.2272 C47.7930667,9.76106667 48.4629333,9.67573333 48.9290667,10.0352 C50.8138667,11.4901333 52.5056,13.1818667 53.9584,15.0634667 C54.3178667,15.5306667 54.2325333,16.1994667 53.7664,16.5589333 C53.5712,16.7093333 53.3429333,16.7818667 53.1146667,16.7818667 L53.1146667,16.7818667 Z" id="Path"></path>
                        <path d="M42.3744,8.49813333 C42.2357333,8.49813333 42.0949333,8.47146667 41.9594667,8.41386667 C40.0757333,7.61706667 38.0917333,7.04853333 36.064,6.72426667 C35.4826667,6.63146667 35.0858667,6.08426667 35.1786667,5.50186667 C35.2714667,4.92053333 35.8197333,4.52266667 36.4,4.6176 C38.5984,4.96853333 40.7477333,5.58506667 42.7904,6.44906667 C43.3333333,6.6784 43.5872,7.30453333 43.3568,7.84746667 C43.1850667,8.25386667 42.7904,8.49813333 42.3744,8.49813333 L42.3744,8.49813333 Z" id="Path"></path>
                        <path d="M36.2314667,59.3962667 C35.7162667,59.3962667 35.2629333,59.0218667 35.1797333,58.4981333 C35.0869333,57.9157333 35.4826667,57.3685333 36.0650667,57.2757333 C38.0928,56.9514667 40.0768,56.3829333 41.9605333,55.5861333 C42.5045333,55.3578667 43.1296,55.6085333 43.3589333,56.1525333 C43.5882667,56.6954667 43.3354667,57.3216 42.7925333,57.5509333 C40.7498667,58.4149333 38.6005333,59.0314667 36.4021333,59.3824 C36.3434667,59.392 36.2869333,59.3962667 36.2314667,59.3962667 L36.2314667,59.3962667 Z" id="Path"></path>
                        <path d="M48.2848,54.1813333 C47.9658667,54.1813333 47.6501333,54.0384 47.44,53.7664 C47.0805333,53.2992 47.1658667,52.6304 47.632,52.2709333 C49.3706667,50.928 50.9333333,49.3642667 52.2762667,47.6245333 C52.6346667,47.1573333 53.3045333,47.0730667 53.7717333,47.4314667 C54.2389333,47.792 54.3242667,48.4618667 53.9648,48.928 C52.5109333,50.8128 50.8192,52.5056 48.9365333,53.9584 C48.7424,54.1088 48.5130667,54.1813333 48.2848,54.1813333 Z" id="Path"></path>
                        <path d="M56.5674667,43.4421333 C56.4288,43.4421333 56.288,43.4154667 56.1525333,43.3578667 C55.6096,43.1285333 55.3557333,42.5024 55.5861333,41.9594667 C56.3829333,40.0746667 56.9514667,38.0917333 57.2746667,36.0650667 C57.3664,35.4826667 57.9157333,35.0848 58.496,35.1797333 C59.0773333,35.2725333 59.4741333,35.8197333 59.3813333,36.4010667 C59.0304,38.5994667 58.4149333,40.7488 57.5509333,42.7914667 C57.3792,43.1978667 56.9834667,43.4421333 56.5674667,43.4421333 Z" id="Path"></path>
                        <path d="M7.43146667,43.4421333 C7.01546667,43.4421333 6.6208,43.1978667 6.44906667,42.7914667 C5.58506667,40.7488 4.96853333,38.5984 4.61866667,36.4010667 C4.52586667,35.8197333 4.9216,35.2725333 5.504,35.1797333 C6.08,35.0848 6.6336,35.4826667 6.72533333,36.0650667 C7.0496,38.0917333 7.61706667,40.0757333 8.41386667,41.9594667 C8.6432,42.5024 8.3904,43.1285333 7.84746667,43.3578667 C7.71093333,43.4144 7.57013333,43.4421333 7.43146667,43.4421333 L7.43146667,43.4421333 Z" id="Path"></path>
                        <path d="M15.7226667,54.1877333 C15.4944,54.1877333 15.2650667,54.1152 15.0709333,53.9648 C13.1861333,52.5098667 11.4944,50.8181333 10.0416,48.9365333 C9.68213333,48.4693333 9.76746667,47.8005333 10.2336,47.4410667 C10.6997333,47.0805333 11.3685333,47.1658667 11.7301333,47.6330667 C13.072,49.3706667 14.6346667,50.9333333 16.3754667,52.2773333 C16.8416,52.6368 16.928,53.3066667 16.5674667,53.7728 C16.3573333,54.0448 16.0416,54.1877333 15.7226667,54.1877333 Z" id="Path"></path>
                        <path d="M27.7685333,59.3962667 C27.7130667,59.3962667 27.6565333,59.392 27.5989333,59.3824 C25.4005333,59.0314667 23.2512,58.4149333 21.2085333,57.5509333 C20.6656,57.3216 20.4117333,56.6954667 20.6421333,56.1525333 C20.8714667,55.6085333 21.4965333,55.3578667 22.0405333,55.5861333 C23.9242667,56.3829333 25.9082667,56.9514667 27.936,57.2757333 C28.5173333,57.3685333 28.9141333,57.9157333 28.8213333,58.4981333 C28.7370667,59.0218667 28.2837333,59.3962667 27.7685333,59.3962667 L27.7685333,59.3962667 Z" id="Path"></path>
                        <path d="M21.6256,8.49813333 C21.2096,8.49813333 20.8149333,8.25386667 20.6432,7.84746667 C20.4138667,7.30453333 20.6666667,6.6784 21.2096,6.44906667 C23.2522667,5.58506667 25.4016,4.96853333 27.6,4.6176 C28.1813333,4.52266667 28.7285333,4.9216 28.8213333,5.50186667 C28.9141333,6.08426667 28.5184,6.63146667 27.936,6.72426667 C25.9082667,7.04853333 23.9242667,7.61706667 22.0405333,8.41386667 C21.904,8.4704 21.7642667,8.49813333 21.6256,8.49813333 L21.6256,8.49813333 Z" id="Path"></path>
                        <path d="M10.8789333,16.7904 C10.6517333,16.7904 10.4224,16.7178667 10.2282667,16.5685333 C9.76106667,16.208 9.67573333,15.5381333 10.0352,15.072 C11.4890667,13.1872 13.1808,11.4944 15.0634667,10.0416 C15.5296,9.68213333 16.1984,9.7664 16.56,10.2336 C16.9194667,10.7008 16.8341333,11.3696 16.368,11.7290667 C14.6293333,13.072 13.0666667,14.6357333 11.7237333,16.3754667 C11.5136,16.6474667 11.1978667,16.7904 10.8789333,16.7904 L10.8789333,16.7904 Z" id="Path"></path>
                        <path d="M5.67253333,28.8341333 C5.616,28.8341333 5.56053333,28.8298667 5.50293333,28.8202667 C4.9216,28.7274667 4.5248,28.1802667 4.6176,27.5989333 C4.96853333,25.4005333 5.584,23.2512 6.448,21.2085333 C6.67733333,20.6656 7.3024,20.4117333 7.8464,20.6421333 C8.38933333,20.8714667 8.6432,21.4976 8.4128,22.0405333 C7.616,23.9253333 7.04746667,25.9082667 6.72426667,27.9349333 C6.64106667,28.4608 6.18773333,28.8341333 5.67253333,28.8341333 Z" id="Path"></path>
                        <path d="M23.4666667,36.2666667 C23.3034667,36.2666667 23.1402667,36.2293333 22.9898667,36.1546667 L14.4565333,31.888 C14.0949333,31.7066667 13.8666667,31.3376 13.8666667,30.9333333 L13.8666667,22.4 C13.8666667,22.0298667 14.0586667,21.6874667 14.3722667,21.4922667 C14.6869333,21.296 15.0805333,21.2810667 15.4101333,21.4453333 L23.9434667,25.712 C24.3050667,25.8933333 24.5333333,26.2624 24.5333333,26.6666667 L24.5333333,35.2 C24.5333333,35.5701333 24.3413333,35.9125333 24.0277333,36.1077333 C23.856,36.2133333 23.6608,36.2666667 23.4666667,36.2666667 L23.4666667,36.2666667 Z M16,30.2741333 L22.4,33.4741333 L22.4,27.3258667 L16,24.1258667 L16,30.2741333 Z" id="Shape"></path>
                        <path d="M23.4666667,36.2666667 C23.2714667,36.2666667 23.0773333,36.2133333 22.9056,36.1077333 C22.592,35.9125333 22.4,35.5701333 22.4,35.2 L22.4,26.6666667 C22.4,26.2624 22.6282667,25.8933333 22.9898667,25.712 L31.5232,21.4453333 C31.8538667,21.2810667 32.2464,21.296 32.5610667,21.4922667 C32.8746667,21.6874667 33.0666667,22.0298667 33.0666667,22.4 L33.0666667,30.9333333 C33.0666667,31.3376 32.8384,31.7066667 32.4768,31.888 L23.9434667,36.1546667 C23.7930667,36.2293333 23.6298667,36.2666667 23.4666667,36.2666667 L23.4666667,36.2666667 Z M24.5333333,27.3258667 L24.5333333,33.4741333 L30.9333333,30.2741333 L30.9333333,24.1258667 L24.5333333,27.3258667 Z" id="Shape"></path>
                        <path d="M23.4666667,27.7333333 C23.3034667,27.7333333 23.1392,27.696 22.9898667,27.6213333 L14.4565333,23.3546667 C14.0949333,23.1733333 13.8666667,22.8042667 13.8666667,22.4 C13.8666667,21.9957333 14.0949333,21.6266667 14.4565333,21.4453333 L22.9898667,17.1786667 C23.2896,17.0282667 23.6437333,17.0282667 23.9445333,17.1786667 L32.4778667,21.4453333 C32.8394667,21.6266667 33.0677333,21.9957333 33.0677333,22.4 C33.0677333,22.8042667 32.8394667,23.1733333 32.4778667,23.3546667 L23.9445333,27.6213333 C23.7930667,27.696 23.6298667,27.7333333 23.4666667,27.7333333 Z M17.3184,22.4 L23.4666667,25.4741333 L29.6149333,22.4 L23.4666667,19.3258667 L17.3184,22.4 Z" id="Shape"></path>
                        <path d="M40.5333333,36.2666667 C40.3701333,36.2666667 40.2069333,36.2293333 40.0565333,36.1546667 L31.5232,31.888 C31.1616,31.7066667 30.9333333,31.3376 30.9333333,30.9333333 L30.9333333,22.4 C30.9333333,22.0298667 31.1253333,21.6874667 31.4389333,21.4922667 C31.7536,21.296 32.1472,21.2810667 32.4768,21.4453333 L41.0101333,25.712 C41.3717333,25.8933333 41.6,26.2624 41.6,26.6666667 L41.6,35.2 C41.6,35.5701333 41.408,35.9125333 41.0944,36.1077333 C40.9226667,36.2133333 40.7274667,36.2666667 40.5333333,36.2666667 L40.5333333,36.2666667 Z M33.0666667,30.2741333 L39.4666667,33.4741333 L39.4666667,27.3258667 L33.0666667,24.1258667 L33.0666667,30.2741333 Z" id="Shape"></path>
                        <path d="M40.5333333,36.2666667 C40.3381333,36.2666667 40.144,36.2133333 39.9722667,36.1077333 C39.6586667,35.9125333 39.4666667,35.5701333 39.4666667,35.2 L39.4666667,26.6666667 C39.4666667,26.2624 39.6949333,25.8933333 40.0565333,25.712 L48.5898667,21.4453333 C48.9205333,21.2810667 49.3130667,21.296 49.6277333,21.4922667 C49.9413333,21.6874667 50.1333333,22.0298667 50.1333333,22.4 L50.1333333,30.9333333 C50.1333333,31.3376 49.9050667,31.7066667 49.5434667,31.888 L41.0101333,36.1546667 C40.8597333,36.2293333 40.6965333,36.2666667 40.5333333,36.2666667 L40.5333333,36.2666667 Z M41.6,27.3258667 L41.6,33.4741333 L48,30.2741333 L48,24.1258667 L41.6,27.3258667 Z" id="Shape"></path>
                        <path d="M40.5333333,27.7333333 C40.3701333,27.7333333 40.2058667,27.696 40.0565333,27.6213333 L31.5232,23.3546667 C31.1616,23.1733333 30.9333333,22.8042667 30.9333333,22.4 C30.9333333,21.9957333 31.1616,21.6266667 31.5232,21.4453333 L40.0565333,17.1786667 C40.3562667,17.0282667 40.7104,17.0282667 41.0112,17.1786667 L49.5445333,21.4453333 C49.9061333,21.6266667 50.1344,21.9957333 50.1344,22.4 C50.1344,22.8042667 49.9061333,23.1733333 49.5445333,23.3546667 L41.0112,27.6213333 C40.8597333,27.696 40.6965333,27.7333333 40.5333333,27.7333333 Z M34.3850667,22.4 L40.5333333,25.4741333 L46.6816,22.4 L40.5333333,19.3258667 L34.3850667,22.4 Z" id="Shape"></path>
                        <path d="M32,49.0666667 C31.8368,49.0666667 31.6736,49.0293333 31.5232,48.9546667 L22.9898667,44.688 C22.6282667,44.5066667 22.4,44.1376 22.4,43.7333333 L22.4,35.2 C22.4,34.8298667 22.592,34.4874667 22.9056,34.2922667 C23.2202667,34.096 23.6128,34.0810667 23.9434667,34.2453333 L32.4768,38.512 C32.8384,38.6933333 33.0666667,39.0624 33.0666667,39.4666667 L33.0666667,48 C33.0666667,48.3701333 32.8746667,48.7125333 32.5610667,48.9077333 C32.3893333,49.0133333 32.1941333,49.0666667 32,49.0666667 L32,49.0666667 Z M24.5333333,43.0741333 L30.9333333,46.2741333 L30.9333333,40.1258667 L24.5333333,36.9258667 L24.5333333,43.0741333 Z" id="Shape"></path>
                        <path d="M32,49.0666667 C31.8048,49.0666667 31.6106667,49.0133333 31.4389333,48.9077333 C31.1253333,48.7125333 30.9333333,48.3701333 30.9333333,48 L30.9333333,39.4666667 C30.9333333,39.0624 31.1616,38.6933333 31.5232,38.512 L40.0565333,34.2453333 C40.3872,34.0810667 40.7797333,34.096 41.0944,34.2922667 C41.408,34.4874667 41.6,34.8298667 41.6,35.2 L41.6,43.7333333 C41.6,44.1376 41.3717333,44.5066667 41.0101333,44.688 L32.4768,48.9546667 C32.3264,49.0293333 32.1632,49.0666667 32,49.0666667 L32,49.0666667 Z M33.0666667,40.1258667 L33.0666667,46.2741333 L39.4666667,43.0741333 L39.4666667,36.9258667 L33.0666667,40.1258667 Z" id="Shape"></path>
                        <path d="M32,40.5333333 C31.8368,40.5333333 31.6725333,40.496 31.5232,40.4213333 L22.9898667,36.1546667 C22.6282667,35.9733333 22.4,35.6042667 22.4,35.2 C22.4,34.7957333 22.6282667,34.4266667 22.9898667,34.2453333 L31.5232,29.9786667 C31.8229333,29.8282667 32.1770667,29.8282667 32.4778667,29.9786667 L41.0112,34.2453333 C41.3728,34.4266667 41.6010667,34.7957333 41.6010667,35.2 C41.6010667,35.6042667 41.3728,35.9733333 41.0112,36.1546667 L32.4778667,40.4213333 C32.3264,40.496 32.1632,40.5333333 32,40.5333333 Z M25.8517333,35.2 L32,38.2741333 L38.1482667,35.2 L32,32.1258667 L25.8517333,35.2 Z" id="Shape"></path>
                    </g>
                </g>
            </g>
        </g>
    </g>
</svg>