<!-- Generated by IcoMoon.io -->
<svg version="1.1" xmlns="http://www.w3.org/2000/svg" width="32" height="32" viewBox="0 0 32 32">
<title>react</title>
<path d="M18.652 15.999c0 1.464-1.187 2.652-2.652 2.652s-2.652-1.187-2.652-2.652c0-1.464 1.187-2.652 2.652-2.652s2.652 1.187 2.652 2.652z"></path>
<path d="M8.572 21.274l-0.585-0.149c-4.361-1.102-6.863-2.973-6.863-5.131s2.502-4.029 6.863-5.131l0.585-0.148 0.165 0.58c0.506 1.73 1.081 3.201 1.766 4.609l-0.076-0.173 0.125 0.264-0.125 0.264c-0.61 1.236-1.185 2.707-1.638 4.231l-0.052 0.204-0.165 0.579zM7.715 12.218c-3.315 0.931-5.349 2.355-5.349 3.776 0 1.419 2.034 2.844 5.349 3.776 0.476-1.506 0.973-2.756 1.545-3.964l-0.080 0.188c-0.494-1.021-0.991-2.271-1.405-3.559l-0.060-0.217zM23.428 21.274l-0.165-0.581c-0.505-1.728-1.081-3.199-1.766-4.606l0.076 0.172-0.125-0.264 0.125-0.264c0.61-1.235 1.185-2.707 1.638-4.23l0.052-0.205 0.165-0.58 0.586 0.148c4.36 1.102 6.862 2.973 6.862 5.132s-2.502 4.029-6.862 5.131l-0.586 0.149zM22.819 15.994c0.595 1.288 1.087 2.554 1.465 3.776 3.316-0.932 5.349-2.357 5.349-3.776 0-1.421-2.034-2.844-5.349-3.776-0.475 1.505-0.972 2.755-1.545 3.962l0.080-0.186z"></path>
<path d="M7.707 12.212l-0.165-0.579c-1.226-4.322-0.854-7.418 1.020-8.499 1.838-1.061 4.79 0.192 7.883 3.367l0.421 0.433-0.421 0.433c-1.066 1.106-2.052 2.307-2.94 3.582l-0.063 0.096-0.167 0.239-0.291 0.025c-1.743 0.14-3.343 0.408-4.895 0.8l0.203-0.043-0.585 0.148zM10.057 3.993c-0.332 0-0.626 0.072-0.874 0.214-1.232 0.71-1.45 3.18-0.601 6.512 1.125-0.265 2.492-0.484 3.886-0.612l0.122-0.009c0.831-1.175 1.666-2.204 2.563-3.175l-0.019 0.021c-1.934-1.883-3.765-2.952-5.076-2.952zM21.944 29.235c-0.001 0-0.001 0 0 0-1.767 0-4.035-1.33-6.389-3.748l-0.421-0.433 0.421-0.433c1.065-1.107 2.051-2.308 2.938-3.584l0.063-0.096 0.167-0.239 0.29-0.025c1.743-0.139 3.345-0.407 4.897-0.798l-0.202 0.043 0.585-0.148 0.166 0.58c1.224 4.319 0.853 7.417-1.021 8.497-0.418 0.24-0.918 0.382-1.452 0.382-0.015 0-0.029-0-0.044-0l0.002 0zM16.867 25.044c1.934 1.883 3.765 2.952 5.076 2.952h0.001c0.331 0 0.626-0.072 0.873-0.214 1.232-0.71 1.452-3.181 0.601-6.513-1.126 0.265-2.494 0.485-3.888 0.612l-0.121 0.009c-0.83 1.176-1.665 2.205-2.561 3.176l0.019-0.021z"></path>
<path d="M24.293 12.212l-0.585-0.148c-1.351-0.35-2.952-0.617-4.592-0.75l-0.103-0.007-0.29-0.025-0.167-0.239c-0.949-1.371-1.935-2.572-3.010-3.687l0.009 0.009-0.421-0.433 0.421-0.433c3.092-3.174 6.042-4.427 7.883-3.367 1.874 1.081 2.246 4.178 1.021 8.498l-0.166 0.58zM19.409 10.099c1.416 0.129 2.761 0.338 4.009 0.621 0.85-3.332 0.631-5.802-0.601-6.512-1.225-0.708-3.527 0.377-5.95 2.737 0.877 0.95 1.712 1.978 2.478 3.058l0.064 0.095zM10.057 29.235c-0.013 0-0.028 0-0.043 0-0.534 0-1.035-0.142-1.467-0.39l0.014 0.008c-1.874-1.080-2.246-4.176-1.020-8.497l0.164-0.58 0.585 0.148c1.432 0.361 3.011 0.615 4.692 0.755l0.291 0.025 0.166 0.239c0.951 1.371 1.937 2.572 3.011 3.689l-0.009-0.009 0.421 0.433-0.421 0.433c-2.353 2.417-4.621 3.748-6.386 3.748zM8.582 21.268c-0.85 3.332-0.631 5.803 0.601 6.513 1.224 0.698 3.524-0.378 5.95-2.737-0.877-0.95-1.712-1.979-2.479-3.059l-0.065-0.096c-1.514-0.136-2.882-0.355-4.216-0.661l0.208 0.040z"></path>
<path d="M16 22.047c-1.020 0-2.069-0.045-3.119-0.131l-0.291-0.025-0.167-0.239c-0.506-0.714-1.059-1.572-1.578-2.454l-0.096-0.177c-0.421-0.705-0.903-1.61-1.348-2.536l-0.098-0.226-0.124-0.264 0.124-0.264c0.543-1.152 1.025-2.057 1.541-2.939l-0.096 0.177c0.513-0.888 1.077-1.773 1.674-2.631l0.167-0.239 0.291-0.025c0.934-0.084 2.021-0.132 3.12-0.132s2.185 0.048 3.259 0.142l-0.139-0.010 0.29 0.025 0.166 0.239c1.094 1.549 2.133 3.317 3.024 5.169l0.097 0.223 0.125 0.264-0.125 0.264c-0.984 2.075-2.023 3.843-3.198 5.508l0.077-0.116-0.166 0.239-0.29 0.025c-1.050 0.087-2.1 0.131-3.12 0.131zM13.276 20.703c1.835 0.138 3.612 0.138 5.448 0 0.933-1.344 1.839-2.886 2.628-4.496l0.094-0.212c-0.88-1.82-1.787-3.363-2.801-4.826l0.077 0.117c-0.815-0.066-1.765-0.103-2.724-0.103s-1.908 0.037-2.848 0.111l0.124-0.008c-0.938 1.346-1.844 2.888-2.631 4.5l-0.092 0.209c0.884 1.822 1.791 3.365 2.802 4.829l-0.079-0.12z"></path>
</svg>
