<?xml version="1.0" encoding="UTF-8"?>
<svg width="64px" height="53px" viewBox="0 0 64 53" version="1.1" xmlns="http://www.w3.org/2000/svg" xmlns:xlink="http://www.w3.org/1999/xlink">
    <title>icon-responsive</title>
    <g id="Page-1" stroke="none" stroke-width="1" fill="none" fill-rule="evenodd">
        <g id="Artboard" transform="translate(-762.000000, -256.000000)" fill="#000000" fill-rule="nonzero">
            <g id="Group-4" transform="translate(192.000000, 169.000000)">
                <g id="icon-responsive" transform="translate(570.000000, 87.000000)">
                    <circle id="Oval" cx="34.9090568" cy="37.8181761" r="1.45449716"></circle>
                    <circle id="Oval" cx="10.1818551" cy="46.5454091" r="1.45449716"></circle>
                    <path d="M59.6362585,0 L10.1818551,0 C7.70910994,0 5.81823864,1.89087131 5.81823864,4.36361648 L5.81823864,18.9090881 C5.81823864,19.7818364 6.4001125,20.3635852 7.2727358,20.3635852 C8.14535909,20.3635852 8.72723295,19.7817114 8.72723295,18.9090881 L8.72723295,4.36374148 C8.72723295,3.49099318 9.30910682,2.90924432 10.1817301,2.90924432 L59.6361335,2.90924432 C60.5088818,2.90924432 61.0906307,3.49111818 61.0906307,4.36374148 L61.0906307,39.2727983 C61.0906307,40.1455466 60.5087568,40.7272955 59.6361335,40.7272955 L24.7272017,40.7272955 C23.8544534,40.7272955 23.2727045,41.3091693 23.2727045,42.1817926 C23.2727045,43.0544159 23.8545784,43.6362898 24.7272017,43.6362898 L27.636321,43.6362898 L27.636321,47.9999063 C27.636321,48.8726545 27.0544472,49.4544034 26.1818239,49.4544034 L24.7273267,49.4544034 C23.8545784,49.4544034 23.2728295,50.0362773 23.2728295,50.9089006 C23.2728295,51.7815239 23.8547034,52.3633977 24.7273267,52.3633977 L45.0909119,52.3633977 C45.9636602,52.3633977 46.5454091,51.7815239 46.5454091,50.9089006 C46.5454091,50.0362773 45.9635352,49.4544034 45.0909119,49.4544034 L43.6364148,49.4544034 C42.7636665,49.4544034 42.1819176,48.8725295 42.1819176,47.9999063 L42.1819176,43.6362898 L59.6363835,43.6362898 C62.1091287,43.6362898 64,41.7454185 64,39.2726733 L64,4.36374148 C64,1.89099631 62.1090037,0 59.6362585,0 Z M30.2544409,49.4545284 C30.3999406,49.0181543 30.5453153,48.5817801 30.5453153,48.0000312 L30.5453153,43.6364148 L39.2725483,43.6364148 L39.2725483,48.0000312 C39.2725483,48.5819051 39.418048,49.0181543 39.5634227,49.4545284 L30.2544409,49.4545284 Z" id="Shape"></path>
                    <path d="M56.7271392,31.9999375 L24.7272017,31.9999375 C23.8544534,31.9999375 23.2727045,32.5818114 23.2727045,33.4544347 C23.2727045,34.327058 23.8545784,34.9089318 24.7272017,34.9089318 L56.7271392,34.9089318 C57.5998875,34.9089318 58.1816364,34.327058 58.1816364,33.4544347 C58.1816364,32.5818114 57.5998875,31.9999375 56.7271392,31.9999375 Z" id="Path"></path>
                    <path d="M15.9999688,23.2727045 L4.36361648,23.2727045 C1.89087131,23.2727045 0,25.1637009 0,27.636321 L0,47.9999063 C0,50.4726514 1.89087131,52.3635227 4.36361648,52.3635227 L15.9999688,52.3635227 C18.4727139,52.3635227 20.3635852,50.4726514 20.3635852,47.9999063 L20.3635852,27.636321 C20.3635852,25.1637009 18.4727139,23.2727045 15.9999688,23.2727045 Z M17.4544659,47.9999063 C17.4544659,48.8726545 16.872592,49.4544034 15.9999688,49.4544034 L4.36361648,49.4544034 C3.49086818,49.4544034 2.90911932,48.8725295 2.90911932,47.9999063 L2.90911932,27.636321 C2.90911932,26.7635727 3.49099318,26.1818239 4.36361648,26.1818239 L15.9999688,26.1818239 C16.872717,26.1818239 17.4544659,26.7636977 17.4544659,27.636321 L17.4544659,47.9999063 Z" id="Shape"></path>
                </g>
            </g>
        </g>
    </g>
</svg>