<!-- Generated by IcoMoon.io -->
<svg version="1.1" xmlns="http://www.w3.org/2000/svg" width="32" height="32" viewBox="0 0 32 32">
<title>responsive-design</title>
<path d="M16.68 23.981c-0.383-0.282-0.424-0.705-0.424-0.705l-0.144-0.918h-4.58l-0.144 0.918c0 0-0.040 0.423-0.423 0.705s-0.685 0.524-0.383 0.565c0.291 0.039 3.038 0.004 3.24 0 0.203 0.004 2.949 0.039 3.241 0 0.302-0.041-0.001-0.282-0.383-0.565z"></path>
<path d="M6.026 16.272c0-0.425-0.345-0.77-0.77-0.77h-3.655c-0.425 0-0.77 0.345-0.77 0.77v8.079c0 0.425 0.345 0.77 0.77 0.77h3.655c0.425 0 0.77-0.344 0.77-0.77v-8.079h-0zM3.047 16.368h0.77c0.053 0 0.096 0.043 0.096 0.096s-0.043 0.097-0.096 0.097h-0.77c-0.053 0-0.096-0.044-0.096-0.097s0.043-0.096 0.096-0.096zM3.4 24.666c-0.213 0-0.385-0.172-0.385-0.385s0.172-0.385 0.385-0.385c0.212 0 0.385 0.172 0.385 0.385s-0.172 0.385-0.385 0.385zM5.545 23.582h-4.232v-6.444h4.232v6.444z"></path>
<path d="M30.089 11.077h-7.915c-0.596 0-1.079 0.483-1.079 1.079v11.329c0 0.596 0.483 1.080 1.079 1.080h7.915c0.596 0 1.079-0.483 1.079-1.080v-11.329c-0-0.596-0.483-1.079-1.079-1.079zM24.582 23.964c-0.298 0-0.54-0.241-0.54-0.539s0.242-0.54 0.54-0.54c0.297 0 0.539 0.242 0.539 0.54s-0.241 0.539-0.539 0.539zM26.131 23.964c-0.297 0-0.539-0.241-0.539-0.539s0.242-0.54 0.539-0.54c0.298 0 0.539 0.242 0.539 0.54s-0.241 0.539-0.539 0.539zM27.682 23.964c-0.298 0-0.54-0.241-0.54-0.539s0.241-0.54 0.54-0.54c0.298 0 0.539 0.242 0.539 0.54s-0.241 0.539-0.539 0.539zM30.494 22.405h-8.725v-10.385h8.725v10.385z"></path>
<path d="M23.551 10.167h1.327v-2.403c0-0.489-0.396-0.885-0.885-0.885h-20.342c-0.488 0-0.885 0.396-0.885 0.885v6.829h1.327v-6.387h19.458v1.961z"></path>
<path d="M6.936 18.819v2.653h13.249v-2.653h-13.249zM13.822 20.753c-0.335 0-0.607-0.272-0.607-0.607s0.272-0.607 0.607-0.607 0.607 0.272 0.607 0.607-0.272 0.607-0.607 0.607z"></path>
</svg>
