<svg version="1.1" xmlns="http://www.w3.org/2000/svg" width="512" height="512" viewBox="0 0 512 512">
<path d="M350.206 20.852l-2.399 54.191c-0.002 0.046-0.003 0.099-0.003 0.153 0 1.987 1.611 3.6 3.599 3.6 0.833 0 1.601-0.283 2.211-0.758l-0.007 0.007 21.197-15.998 17.997 13.998c0.563 0.382 1.257 0.609 2.004 0.609 1.921 0 3.49-1.505 3.594-3.4l0-0.009-2-55.191 26.596-2c0.478-0.035 1.037-0.053 1.599-0.053 13.252 0 23.995 10.744 23.995 23.995 0 0.019 0 0.038 0 0.056v-0.003 431.925c0 0.009 0 0.020 0 0.030 0 13.252-10.743 23.995-23.995 23.995-0.422 0-0.842-0.010-1.259-0.033l0.058 0.002-321.944-14.397c-12.549-0.533-22.575-10.627-22.995-23.156l-0.001-0.039-14.997-395.932c-0.028-0.429-0.043-0.932-0.043-1.438 0-12.775 9.983-23.218 22.574-23.954l0.066-0.003 263.954-16.598zM288.817 202.022c0 9.398 63.189 4.799 71.787-1.599 0-63.988-34.394-97.783-97.183-97.783-62.989 0-97.983 34.394-97.983 85.785 0 88.985 119.979 90.584 119.979 139.176 0 13.998-6.399 21.997-20.996 21.997-19.197 0-26.995-9.798-25.995-43.192 0-7.199-72.987-9.598-75.387 0-5.399 80.587 44.592 103.982 101.982 103.982 55.791 0 99.382-29.795 99.382-83.586 0-95.383-121.979-92.784-121.979-139.976 0-19.397 14.397-21.996 22.596-21.996 8.998 0 24.996 1.4 23.796 37.193z"></path>
</svg>
