<?xml version="1.0" encoding="UTF-8"?>
<svg width="68px" height="68px" viewBox="0 0 68 68" version="1.1" xmlns="http://www.w3.org/2000/svg" xmlns:xlink="http://www.w3.org/1999/xlink">
    <title>icon-typescript</title>
    <g id="Page-1" stroke="none" stroke-width="1" fill="none" fill-rule="evenodd">
        <g id="Artboard" transform="translate(-763.000000, -1215.000000)" fill="#000000">
            <g id="icon-typescript" transform="translate(765.000000, 1217.000000)">
                <path d="M58,-1.5 L6,-1.5 C1.85786438,-1.5 -1.5,1.85786438 -1.5,6 L-1.5,58 C-1.5,62.1421356 1.85786438,65.5 6,65.5 L58,65.5 C62.1421356,65.5 65.5,62.1421356 65.5,58 L65.5,6 C65.5,1.85786438 62.1421356,-1.5 58,-1.5 Z M6,1.5 L58,1.5 C60.4852814,1.5 62.5,3.51471863 62.5,6 L62.5,58 C62.5,60.4852814 60.4852814,62.5 58,62.5 L6,62.5 C3.51471863,62.5 1.5,60.4852814 1.5,58 L1.5,6 C1.5,3.51471863 3.51471863,1.5 6,1.5 Z" id="Rectangle" fill-rule="nonzero"></path>
                <path d="M39.617375,50.928 L39.617375,57.185625 C40.634625,57.707125 41.83775,58.098125 43.22675,58.358875 C44.61575,58.619625 46.079625,58.75 47.618625,58.75 C49.1185,58.75 50.54325,58.606625 51.893125,58.31975 C53.243,58.033 54.426625,57.560375 55.443875,56.902 C56.461125,56.24375 57.2665,55.38325 57.859875,54.32075 C58.45325,53.25825 58.75,51.944875 58.75,50.3805 C58.75,49.24625 58.5805,48.25225 58.241375,47.398375 C57.90225,46.5445 57.41325,45.785125 56.774125,45.12025 C56.135125,44.455375 55.368875,43.858875 54.4755,43.330875 C53.582125,42.802875 52.574625,42.30425 51.453,41.835 C50.631375,41.496 49.8945,41.166875 49.242375,40.8475 C48.59025,40.528 48.036,40.202125 47.5795,39.86975 C47.123,39.53725 46.770875,39.18525 46.523125,38.81375 C46.275375,38.442125 46.151375,38.02175 46.151375,37.552375 C46.151375,37.12225 46.26225,36.734375 46.484,36.388875 C46.70575,36.043375 47.01875,35.746875 47.423,35.499125 C47.827375,35.2515 48.322875,35.059125 48.90975,34.92225 C49.49675,34.785375 50.14875,34.717 50.866125,34.717 C51.38775,34.717 51.93875,34.756125 52.519125,34.83425 C53.0995,34.9125 53.683125,35.033125 54.270125,35.196 C54.857,35.359 55.4275,35.564375 55.981875,35.812 C56.536125,36.05975 57.048,36.3465 57.5175,36.6725 L57.5175,30.8255 C56.5655,30.4605 55.525375,30.19 54.39725,30.014 C53.269125,29.838 51.974625,29.75 50.514,29.75 C49.027125,29.75 47.618625,29.90975 46.288375,30.229125 C44.958125,30.5485 43.787625,31.047125 42.77675,31.725 C41.766,32.403 40.96725,33.266625 40.380375,34.316125 C39.7935,35.3655 39.5,36.62025 39.5,38.080375 C39.5,39.944625 40.038,41.535125 41.114,42.851875 C42.189875,44.1685 43.823375,45.283125 46.0145,46.19575 C46.87525,46.54775 47.677375,46.893125 48.42075,47.232125 C49.164125,47.571125 49.8065,47.923125 50.347625,48.288125 C50.888875,48.653125 51.316,49.05075 51.629125,49.481 C51.942125,49.911125 52.098625,50.4 52.098625,50.947625 C52.098625,51.35175 52.00075,51.7265 51.805125,52.072 C51.6095,52.4175 51.31275,52.71725 50.915,52.9715 C50.51725,53.22575 50.021625,53.4245 49.42825,53.567875 C48.83475,53.711375 48.140375,53.783 47.34475,53.783 C45.988375,53.783 44.645125,53.545125 43.31475,53.06925 C41.9845,52.5935 40.752,51.87975 39.617375,50.928 L39.617375,50.928 Z M29.0975,35.51025 L37.125,35.51025 L37.125,30.375 L14.75,30.375 L14.75,35.51025 L22.73825,35.51025 L22.73825,58.375 L29.0975,58.375 L29.0975,35.51025 Z" id="Shape"></path>
            </g>
        </g>
    </g>
</svg>